<svg xmlns="http://www.w3.org/2000/svg" viewBox="0 0 64 64" width="64" height="64">
  <rect width="64" height="64" rx="11" fill="#0A1F1C"/>
  <!--
    Traced from original: bold calligraphic ح (Haa) — Muhammad Hamzury signature mark
    Three components: large outer D-arc · inner teardrop eye · lower-left tail
    fill-rule="evenodd" punches the eye through the gold fill
  -->
  <path
    transform="translate(4,3) scale(0.56)"
    fill-rule="evenodd"
    fill="#C9A97E"
    d="
      M 40 4
      C 50 1, 65 4, 73 13
      C 83 23, 87 40, 85 56
      C 83 71, 74 81, 63 86
      C 54 89, 43 89, 35 85
      L 18 86
      C 10 87, 3 83, 3 76
      C 3 69, 13 71, 21 72
      C 16 62, 13 48, 17 37
      C 17 25, 20 13, 29 8
      C 33 5, 37 4, 40 4
      Z

      M 37 33
      C 45 29, 55 35, 55 47
      C 55 59, 48 67, 39 67
      C 30 67, 24 59, 24 48
      C 24 37, 30 33, 37 33
      Z
    "
  />
</svg>
